HIERARCHY
ROOT Hips
{
 OFFSET 0.000000 0.000000 0.000000
 CHANNELS 6 Xposition Yposition Zposition Yrotation Xrotation Zrotation
 JOINT Chest
 {
  OFFSET 0.000000 9.585900 0.002600
  CHANNELS 3 Yrotation Xrotation Zrotation
  JOINT Chest2
  {
   OFFSET 0.000000 9.601200 -0.005300
   CHANNELS 3 Yrotation Xrotation Zrotation
   JOINT Chest3
   {
    OFFSET 0.000000 9.561800 0.000000
    CHANNELS 3 Yrotation Xrotation Zrotation
    JOINT Chest4
    {
     OFFSET 0.000000 9.552100 0.000000
     CHANNELS 3 Yrotation Xrotation Zrotation
     JOINT Neck
     {
      OFFSET 0.000000 14.453000 0.000000
      CHANNELS 3 Yrotation Xrotation Zrotation
      JOINT Head
      {
       OFFSET 0.000000 8.936500 -0.011300
       CHANNELS 3 Yrotation Xrotation Zrotation
       End Site
       {
        OFFSET 0.000000 17.073600 -0.006000
       }
      }
     }
     JOINT RightCollar
     {
      OFFSET -2.921100 9.558500 0.000000
      CHANNELS 3 Yrotation Xrotation Zrotation
      JOINT RightShoulder
      {
       OFFSET -13.519700 0.000000 0.000000
       CHANNELS 3 Yrotation Xrotation Zrotation
       JOINT RightElbow
       {
        OFFSET 0.000000 -29.696600 0.000000
        CHANNELS 3 Yrotation Xrotation Zrotation
        JOINT RightWrist
        {
         OFFSET 0.000000 -24.004700 0.000000
         CHANNELS 3 Yrotation Xrotation Zrotation
         End Site
         {
          OFFSET 0.000000 -17.728500 0.000000
         }
        }
       }
      }
     }
     JOINT LeftCollar
     {
      OFFSET 2.921100 9.558500 0.000000
      CHANNELS 3 Yrotation Xrotation Zrotation
      JOINT LeftShoulder
      {
       OFFSET 13.519700 0.000000 0.000000
       CHANNELS 3 Yrotation Xrotation Zrotation
       JOINT LeftElbow
       {
        OFFSET 0.000000 -29.696600 0.000000
        CHANNELS 3 Yrotation Xrotation Zrotation
        JOINT LeftWrist
        {
         OFFSET 0.000000 -24.004700 0.000000
         CHANNELS 3 Yrotation Xrotation Zrotation
         End Site
         {
          OFFSET 0.000000 -17.728500 0.000000
         }
        }
       }
      }
     }
    }
   }
  }
 }
 JOINT RightHip
 {
  OFFSET -7.771700 -0.012900 -0.001300
  CHANNELS 3 Yrotation Xrotation Zrotation
  JOINT RightKnee
  {
   OFFSET 0.000000 -40.869800 0.001200
   CHANNELS 3 Yrotation Xrotation Zrotation
   JOINT RightAnkle
   {
    OFFSET 0.000000 -39.717900 0.002100
    CHANNELS 3 Yrotation Xrotation Zrotation
    JOINT RightToe
    {
     OFFSET 0.000000 -4.965400 11.033500
     CHANNELS 3 Yrotation Xrotation Zrotation
     End Site
     {
      OFFSET 0.000000 -1.423100 5.872300
     }
    }
   }
  }
 }
 JOINT LeftHip
 {
  OFFSET 7.771700 -0.012900 -0.001300
  CHANNELS 3 Yrotation Xrotation Zrotation
  JOINT LeftKnee
  {
   OFFSET 0.000000 -40.869800 0.001200
   CHANNELS 3 Yrotation Xrotation Zrotation
   JOINT LeftAnkle
   {
    OFFSET 0.000000 -39.717900 0.002100
    CHANNELS 3 Yrotation Xrotation Zrotation
    JOINT LeftToe
    {
     OFFSET 0.000000 -4.965400 11.033500
     CHANNELS 3 Yrotation Xrotation Zrotation
     End Site
     {
      OFFSET 0.000000 -1.423100 5.872300
     }
    }
   }
  }
 }
}
MOTION
Frames: 15
Frame Time: 0.008333
-25.750385 62.097120 12.151931 175.649763 -51.988292 -0.280803 4.072613 27.077546 1.479318 0.591448 4.655643 0.228084 0.944676 7.394189 0.370707 3.068470 21.962245 1.534627 1.316235 13.207197 -0.623250 2.742781 -11.248530 -1.694616 5.769726 5.999170 5.249575 1.952220 -12.781034 -16.039823 -121.836526 -63.170884 152.448966 14.892013 0.924503 -2.750192 -11.136019 3.600955 -1.688406 -6.432191 -9.429788 18.793286 165.164573 -73.244827 177.215168 2.351462 -10.917938 2.938040 3.235394 -15.040558 -5.313069 -1.817966 61.154353 -5.590853 1.790557 -6.992814 10.643991 0.232767 -0.482160 0.105257 -3.057858 -12.081921 2.744185 24.979006 76.844055 25.442059 0.869173 -11.669062 -3.366005 0.196900 0.593434 0.089689
-25.751504 62.097461 12.154507 175.643003 -52.006217 -0.271118 4.074321 27.080656 1.482020 0.593325 4.662472 0.228850 0.946271 7.396405 0.375573 3.065536 21.970615 1.535315 1.314304 13.220267 -0.643019 2.744030 -11.225050 -1.734340 5.766620 6.010066 5.236731 1.957599 -12.789121 -15.985946 -121.866852 -63.207809 152.491261 14.891805 0.928525 -2.758439 -11.147541 3.586494 -1.684416 -6.416178 -9.419339 18.783664 165.293765 -73.250553 177.076302 2.342130 -10.907154 2.918518 3.241156 -15.023061 -5.318523 -1.813008 61.153938 -5.582195 1.785275 -6.997306 10.643127 0.234475 -0.480534 0.103768 -3.047655 -12.063471 2.737372 24.980250 76.837623 25.443280 0.882900 -11.666992 -3.366785 0.197021 0.595543 0.090815
-25.748550 62.098575 12.156217 175.639097 -52.030882 -0.286596 4.090508 27.088670 1.516415 0.595207 4.666572 0.227987 0.942863 7.403596 0.373971 3.064207 21.975620 1.537387 1.315669 13.230639 -0.657002 2.746207 -11.195073 -1.772211 5.762399 6.015090 5.227765 1.958269 -12.789770 -15.943620 -121.861978 -63.229106 152.501277 14.900511 0.931079 -2.762177 -11.155212 3.580668 -1.686381 -6.404440 -9.414586 18.785302 165.316861 -73.252282 177.032362 2.329286 -10.885713 2.896588 3.232838 -15.000531 -5.298649 -1.805126 61.155026 -5.576788 1.806134 -7.013406 10.650085 0.211284 -0.470523 0.092211 -3.044202 -12.036877 2.758517 24.957745 76.836097 25.421941 0.899567 -11.649014 -3.359787 0.178959 0.579915 0.082323
-25.749572 62.100904 12.156095 175.648906 -52.065907 -0.287253 4.086449 27.110218 1.520172 0.600860 4.665430 0.230903 0.932775 7.417412 0.367206 3.063957 21.977180 1.538088 1.321267 13.238138 -0.664674 2.747464 -11.165970 -1.799151 5.762313 6.022773 5.219650 1.957039 -12.792080 -15.901571 -121.737185 -63.226436 152.406923 14.874739 0.936850 -2.785191 -11.160995 3.569886 -1.673633 -6.386819 -9.407342 18.775725 165.255636 -73.253303 177.065525 2.329570 -10.859791 2.870778 3.223769 -14.965794 -5.306229 -1.807380 61.159008 -5.577389 1.811031 -7.014220 10.647258 0.208525 -0.480007 0.091430 -3.044365 -12.000965 2.750354 24.964952 76.831298 25.427943 0.901033 -11.644393 -3.358730 0.164324 0.576565 0.083669
-25.750832 62.101617 12.156718 175.645301 -52.089949 -0.275098 4.103260 27.102154 1.532478 0.591079 4.683494 0.223140 0.936705 7.422878 0.374594 3.064157 21.981693 1.541393 1.307330 13.245114 -0.673293 2.751567 -11.138133 -1.820812 5.745493 6.036698 5.204510 1.959097 -12.793802 -15.853516 -121.740998 -63.245761 152.419027 14.812544 0.945090 -2.803842 -11.174033 3.563079 -1.669577 -6.375689 -9.403693 18.769551 165.173421 -73.256977 177.121535 2.354720 -10.830475 2.816916 3.222953 -14.944512 -5.319719 -1.801408 61.163082 -5.566580 1.814734 -7.014365 10.641131 0.214482 -0.488837 0.092614 -3.038115 -11.974526 2.739506 24.959446 76.825945 25.416822 0.911376 -11.647453 -3.347969 0.187040 0.582064 0.077227
-25.751110 62.101811 12.157399 175.638392 -52.111283 -0.265136 4.109578 27.106044 1.532960 0.591499 4.689590 0.222421 0.943565 7.423995 0.376086 3.074447 21.975402 1.544273 1.298201 13.271966 -0.680895 2.741239 -11.139069 -1.813483 5.724244 6.057384 5.194623 1.961801 -12.790535 -15.796323 -121.745546 -63.263800 152.429299 14.769866 0.952194 -2.823290 -11.193726 3.570388 -1.652790 -6.362718 -9.402826 18.759912 165.114013 -73.262220 177.162980 2.356455 -10.829415 2.806845 3.222493 -14.924893 -5.323997 -1.793276 61.165040 -5.561101 1.816866 -7.018443 10.642746 0.212396 -0.488013 0.089103 -3.032319 -11.952843 2.734551 24.951122 76.826081 25.406971 0.911826 -11.648032 -3.343218 0.175813 0.581273 0.074920
-25.750180 62.102246 12.157633 175.632350 -52.135653 -0.261984 4.117161 27.111952 1.541229 0.589832 4.703856 0.219346 0.947487 7.414813 0.376928 3.075440 21.976114 1.547564 1.300950 13.303431 -0.700699 2.736637 -11.113456 -1.819991 5.714660 6.068179 5.182171 1.964736 -12.784372 -15.762753 -121.660671 -63.257074 152.365372 14.764939 0.958729 -2.850224 -11.192655 3.556915 -1.623458 -6.354576 -9.389054 18.730182 165.075949 -73.267052 177.189933 2.355322 -10.833824 2.800052 3.215807 -14.901797 -5.323882 -1.774615 61.165867 -5.541770 1.815367 -7.022640 10.636025 0.215866 -0.491810 0.090193 -3.025750 -11.927254 2.738964 24.927467 76.828060 25.383406 0.908212 -11.650934 -3.341524 0.175189 0.581926 0.076680
-25.749440 62.100339 12.159393 175.633415 -52.143376 -0.263448 4.120343 27.100498 1.548492 0.586995 4.706454 0.218607 0.953130 7.404181 0.381310 3.072832 21.987428 1.546982 1.295715 13.324262 -0.706867 2.740507 -11.066469 -1.842513 5.705416 6.079314 5.159165 1.960701 -12.774334 -15.717650 -121.597836 -63.249336 152.314636 14.775205 0.966534 -2.860285 -11.196989 3.565441 -1.620914 -6.351775 -9.387620 18.723361 165.098622 -73.269842 177.162219 2.360720 -10.840175 2.795595 3.211380 -14.895967 -5.327394 -1.771762 61.166011 -5.528055 1.810714 -7.027399 10.624194 0.225355 -0.484866 0.092001 -3.026358 -11.921433 2.741483 24.916103 76.829239 25.372675 0.901170 -11.653095 -3.337452 0.172828 0.584324 0.074707
-25.749387 62.099897 12.159667 175.635811 -52.163683 -0.261069 4.119283 27.111148 1.548292 0.591186 4.697863 0.222420 0.948038 7.418357 0.377635 3.074780 21.971893 1.550935 1.293130 13.348533 -0.713321 2.736578 -11.016520 -1.860535 5.698294 6.092756 5.145404 1.956566 -12.755215 -15.625481 -121.572727 -63.268365 152.304132 14.834476 0.974929 -2.850976 -11.198932 3.576685 -1.619842 -6.348541 -9.385349 18.715589 165.182795 -73.267970 177.070625 2.380961 -10.844024 2.793457 3.209701 -14.876186 -5.331082 -1.772640 61.166999 -5.526887 1.810492 -7.030721 10.622834 0.218461 -0.486343 0.091418 -3.026420 -11.902554 2.735921 24.916761 76.829192 25.373739 0.898412 -11.652599 -3.334784 0.169606 0.583097 0.073371
-25.749020 62.099183 12.159986 175.636303 -52.182747 -0.259360 4.119430 27.120408 1.549392 0.593435 4.672564 0.227995 0.946174 7.433089 0.375231 3.071551 21.971257 1.551130 1.292704 13.377645 -0.720723 2.729446 -10.914271 -1.888261 5.692511 6.104696 5.133503 1.952219 -12.741990 -15.577383 -121.585335 -63.277159 152.314791 14.823303 0.990932 -2.844591 -11.195872 3.581344 -1.612635 -6.336119 -9.387494 18.702259 165.152372 -73.276506 177.084196 2.377255 -10.849734 2.783401 3.210834 -14.858365 -5.333500 -1.772371 61.169098 -5.523569 1.814905 -7.032142 10.622541 0.212791 -0.490011 0.090548 -3.023891 -11.884528 2.732187 24.916601 76.830304 25.375521 0.900401 -11.654781 -3.334359 0.168839 0.583921 0.073385
-25.749604 62.097936 12.160443 175.641141 -52.198830 -0.256166 4.114027 27.095713 1.551562 0.591670 4.708841 0.221065 0.946946 7.401077 0.380343 3.064885 21.987310 1.547547 1.293125 13.407491 -0.727951 2.724540 -10.841717 -1.906915 5.694245 6.113546 5.122388 1.942263 -12.727717 -15.529302 -121.606419 -63.289038 152.333425 14.805672 1.008769 -2.865124 -11.195161 3.565752 -1.598416 -6.317840 -9.366965 18.677173 165.164802 -73.274430 177.054831 2.381978 -10.845879 2.776667 3.213245 -14.843216 -5.343466 -1.774260 61.171728 -5.518556 1.820349 -7.034971 10.621347 0.212083 -0.491216 0.090338 -3.022917 -11.870655 2.724933 24.878163 76.834868 25.338081 0.906130 -11.656137 -3.330417 0.166534 0.584252 0.072635
-25.750182 62.099237 12.158754 175.645031 -52.235170 -0.252238 4.107073 27.116680 1.548208 0.593724 4.702996 0.221649 0.946046 7.417408 0.378182 3.057093 21.972562 1.548128 1.286969 13.446433 -0.744285 2.731558 -10.827908 -1.907192 5.702002 6.127251 5.114558 1.930357 -12.720356 -15.487914 -121.631018 -63.302422 152.358976 14.803123 1.015057 -2.862397 -11.189751 3.576404 -1.601987 -6.305174 -9.377388 18.671764 165.168863 -73.263688 177.039360 2.389016 -10.826694 2.767994 3.213579 -14.807655 -5.350391 -1.793306 61.177550 -5.529151 1.822792 -7.034588 10.619158 0.218477 -0.497195 0.091651 -3.023937 -11.833961 2.715007 24.859498 76.837867 25.319851 0.908623 -11.655140 -3.327794 0.168333 0.578258 0.072148
-25.750109 62.098761 12.158358 175.643155 -52.259229 -0.249288 4.107206 27.135543 1.548811 0.587476 4.671829 0.225338 0.946795 7.433414 0.376371 3.056897 21.983471 1.546463 1.282347 13.466669 -0.753370 2.728366 -10.754839 -1.930003 5.708470 6.129339 5.104998 1.914815 -12.715075 -15.449103 -121.650748 -63.312155 152.382909 14.800284 1.023826 -2.861047 -11.186580 3.576905 -1.601835 -6.295360 -9.385224 18.666623 165.152480 -73.270374 177.044888 2.383129 -10.835267 2.752178 3.215964 -14.784875 -5.352588 -1.794143 61.180084 -5.526951 1.832488 -7.035108 10.621323 0.217209 -0.499140 0.089538 -3.022610 -11.810607 2.711689 24.860793 76.840183 25.320326 0.913575 -11.657523 -3.328093 0.169642 0.578505 0.072733
-25.750181 62.096812 12.159007 175.643524 -52.273198 -0.248655 4.102221 27.129651 1.549771 0.587276 4.664950 0.222667 0.944727 7.440578 0.379476 3.056718 21.993712 1.544922 1.279862 13.484392 -0.762912 2.719010 -10.678625 -1.952353 5.706278 6.125019 5.090121 1.910828 -12.702560 -15.422739 -121.657736 -63.315297 152.392399 14.796064 1.027709 -2.866967 -11.195121 3.544917 -1.594428 -6.276392 -9.351616 18.649274 165.157179 -73.270273 177.039302 2.373113 -10.849922 2.728253 3.217229 -14.773057 -5.355955 -1.805072 61.183018 -5.531787 1.849009 -7.039443 10.620840 0.210504 -0.497127 0.088011 -3.022784 -11.798597 2.709084 24.861681 76.843222 25.321834 0.917392 -11.663157 -3.328796 0.170196 0.583189 0.072714
-25.750654 62.095859 12.158767 175.647287 -52.296085 -0.248541 4.094075 27.112211 1.542759 0.588369 4.683025 0.223800 0.946739 7.441065 0.381196 3.050010 21.974065 1.539479 1.285820 13.528494 -0.760138 2.708089 -10.615082 -1.971332 5.704593 6.148209 5.084164 1.909552 -12.686913 -15.396635 -121.660710 -63.316512 152.397184 14.796422 1.032025 -2.866109 -11.192836 3.576013 -1.595695 -6.267908 -9.362695 18.648084 165.183063 -73.278056 177.016877 2.382038 -10.849808 2.707378 3.218014 -14.750730 -5.359092 -1.814256 61.185089 -5.533540 1.849220 -7.042761 10.615080 0.214223 -0.494703 0.090668 -3.022174 -11.779922 2.696933 24.895790 76.844244 25.362532 0.925606 -11.658638 -3.328745 0.154353 0.577342 0.068013
